<svg width="29" height="28" viewBox="0 0 29 28" fill="none" xmlns="http://www.w3.org/2000/svg">
<path fill-rule="evenodd" clip-rule="evenodd" d="M6.78467 2.56635C3.67937 3.81561 1.15392 7.06593 1.53889 11.867C1.8278 15.4701 3.81424 18.4008 6.16096 20.6057C8.50889 22.8119 11.2877 24.3609 13.3408 25.2123C14.043 25.5034 14.8321 25.5203 15.549 25.2474C17.7041 24.4268 20.4728 22.8854 22.797 20.67C25.119 18.4567 27.0537 15.5137 27.3994 11.8977C28.0505 7.02246 25.4476 3.7798 22.2539 2.55681C19.5874 1.53567 16.3342 1.90161 14.4472 4.07821C12.5503 1.88511 9.4093 1.51047 6.78467 2.56635ZM7.46169 4.24922C9.89092 3.27194 12.5079 3.92627 13.6483 6.11427C13.8058 6.41646 14.1194 6.60487 14.4602 6.60202C14.8009 6.59917 15.1113 6.40555 15.2638 6.10077C16.3243 3.98014 19.0527 3.27332 21.6052 4.2508C24.0615 5.19143 26.1405 7.66803 25.5994 11.6731C25.5977 11.6852 25.5964 11.6974 25.5952 11.7096C25.3079 14.7639 23.6687 17.3332 21.5455 19.357C19.4204 21.3825 16.8673 22.8044 14.9035 23.5521C14.626 23.6578 14.3164 23.6531 14.0356 23.5367C12.1367 22.7493 9.55747 21.3081 7.40307 19.2838C5.24747 17.2584 3.5873 14.7184 3.34703 11.722C3.02556 7.71281 5.09202 5.20254 7.46169 4.24922Z" fill="#9E9E9E"/>
</svg>
