<svg width="16" height="16" viewBox="0 0 16 16" fill="none" xmlns="http://www.w3.org/2000/svg">
<path fill-rule="evenodd" clip-rule="evenodd" d="M5.85237 2.86466C5.9348 2.74102 6.07357 2.66675 6.22217 2.66675H9.77772C9.92633 2.66675 10.0651 2.74102 10.1475 2.86466L10.9045 4.00008H12.4444C12.798 4.00008 13.1372 4.14056 13.3872 4.39061C13.6372 4.64065 13.7777 4.97979 13.7777 5.33341V11.5556C13.7777 11.9093 13.6372 12.2484 13.3872 12.4984C13.1372 12.7485 12.798 12.889 12.4444 12.889H3.5555C3.20188 12.889 2.86274 12.7485 2.61269 12.4984C2.36264 12.2484 2.22217 11.9093 2.22217 11.5556V5.33341C2.22217 4.97979 2.36264 4.64065 2.61269 4.39061C2.86274 4.14056 3.20188 4.00008 3.5555 4.00008H5.09542L5.85237 2.86466ZM6.46003 3.55564L5.70308 4.69106C5.62065 4.8147 5.48188 4.88897 5.33328 4.88897H3.5555C3.43763 4.88897 3.32458 4.9358 3.24123 5.01915C3.15788 5.10249 3.11106 5.21554 3.11106 5.33341V11.5556C3.11106 11.6735 3.15788 11.7866 3.24123 11.8699C3.32458 11.9533 3.43763 12.0001 3.5555 12.0001H12.4444C12.5623 12.0001 12.6753 11.9533 12.7587 11.8699C12.842 11.7866 12.8888 11.6735 12.8888 11.5556V5.33341C12.8888 5.21554 12.842 5.10249 12.7587 5.01915C12.6753 4.9358 12.5623 4.88897 12.4444 4.88897H10.6666C10.518 4.88897 10.3792 4.8147 10.2968 4.69106L9.53987 3.55564H6.46003Z" fill="#3FA8D0"/>
<path fill-rule="evenodd" clip-rule="evenodd" d="M8.00011 6.66672C7.141 6.66672 6.44455 7.36317 6.44455 8.22228C6.44455 9.08139 7.141 9.77783 8.00011 9.77783C8.85922 9.77783 9.55566 9.08139 9.55566 8.22228C9.55566 7.36317 8.85922 6.66672 8.00011 6.66672ZM5.55566 8.22228C5.55566 6.87225 6.65008 5.77783 8.00011 5.77783C9.35014 5.77783 10.4446 6.87225 10.4446 8.22228C10.4446 9.57231 9.35014 10.6667 8.00011 10.6667C6.65008 10.6667 5.55566 9.57231 5.55566 8.22228Z" fill="#3FA8D0"/>
</svg>
