<svg xmlns="http://www.w3.org/2000/svg" xmlns:xlink="http://www.w3.org/1999/xlink" width="500" zoomAndPan="magnify" viewBox="0 0 375 374.999991" height="500" preserveAspectRatio="xMidYMid meet" version="1.0"><defs><g/><clipPath id="e1e5b14517"><path d="M 141.035156 107.121094 L 234 107.121094 L 234 201.621094 L 141.035156 201.621094 Z M 141.035156 107.121094 " clip-rule="nonzero"/></clipPath></defs><g clip-path="url(#e1e5b14517)"><path fill="#3fa8d0" d="M 228.359375 140.90625 L 232.472656 107.121094 L 203.21875 122.921875 L 171.757812 122.921875 L 142.503906 107.121094 L 146.617188 140.90625 L 141.035156 168.035156 L 153.703125 191.71875 L 187.488281 201.335938 L 221.273438 191.71875 L 233.941406 168.035156 Z M 217.796875 187.40625 L 187.488281 196.039062 L 157.175781 187.40625 L 146.398438 167.257812 L 151.777344 141.121094 L 148.753906 116.289062 L 170.46875 128.015625 L 204.503906 128.015625 L 226.222656 116.289062 L 223.199219 141.121094 L 228.578125 167.257812 Z M 217.796875 187.40625 " fill-opacity="1" fill-rule="nonzero"/></g><path fill="#3fa8d0" d="M 169.617188 178.476562 L 205.359375 178.476562 L 187.488281 163 Z M 169.617188 178.476562 " fill-opacity="1" fill-rule="nonzero"/><g fill="#3fa8d0" fill-opacity="1"><g transform="translate(107.892763, 243.414706)"><g><path d="M 16.367188 0.652344 C 23.425781 0.652344 28.976562 -4.082031 30.285156 -11.140625 L 24.039062 -11.140625 C 23.019531 -7.550781 20.121094 -5.265625 16.367188 -5.265625 C 11.507812 -5.265625 7.878906 -9.101562 7.878906 -14.242188 C 7.878906 -19.386719 11.507812 -23.265625 16.367188 -23.265625 C 19.957031 -23.265625 22.816406 -21.140625 24 -17.792969 L 30.160156 -17.792969 C 28.855469 -24.570312 23.304688 -29.183594 16.367188 -29.183594 C 7.957031 -29.183594 1.589844 -22.734375 1.589844 -14.242188 C 1.589844 -5.796875 7.957031 0.652344 16.367188 0.652344 Z M 16.367188 0.652344 "/></g></g></g><g fill="#3fa8d0" fill-opacity="1"><g transform="translate(137.310372, 243.414706)"><g><path d="M 20.816406 -22.039062 L 20.203125 -19.957031 C 18.285156 -21.632812 15.792969 -22.652344 12.9375 -22.652344 C 6.324219 -22.652344 1.386719 -17.671875 1.386719 -11.019531 C 1.386719 -4.367188 6.324219 0.652344 12.9375 0.652344 C 15.753906 0.652344 18.203125 -0.328125 20.082031 -2 L 20.609375 0 L 25.265625 0 L 25.265625 -22.039062 Z M 13.425781 -4.980469 C 9.957031 -4.980469 7.429688 -7.589844 7.429688 -11.019531 C 7.429688 -14.488281 9.957031 -17.058594 13.425781 -17.058594 C 16.898438 -17.058594 19.425781 -14.488281 19.425781 -11.019531 C 19.425781 -7.550781 16.898438 -4.980469 13.425781 -4.980469 Z M 13.425781 -4.980469 "/></g></g></g><g fill="#3fa8d0" fill-opacity="1"><g transform="translate(163.422994, 243.414706)"><g><path d="M 13.632812 -5.304688 C 11.429688 -5.304688 10.203125 -6.53125 10.203125 -8.652344 L 10.203125 -17.222656 L 16.203125 -17.222656 L 16.203125 -22.039062 L 10.121094 -22.039062 L 10.121094 -27.753906 L 8.980469 -27.753906 L 0.285156 -18.53125 L 0.285156 -17.222656 L 4.246094 -17.222656 L 4.246094 -7.835938 C 4.246094 -2.980469 7.222656 0 12.082031 0 L 16.324219 0 L 16.324219 -5.304688 Z M 13.632812 -5.304688 "/></g></g></g><g fill="#3fa8d0" fill-opacity="1"><g transform="translate(178.927015, 243.414706)"><g><path d="M 13.304688 0.652344 C 20.121094 0.652344 25.222656 -4.367188 25.222656 -11.019531 C 25.222656 -17.671875 20.121094 -22.652344 13.304688 -22.652344 C 6.488281 -22.652344 1.386719 -17.671875 1.386719 -11.019531 C 1.386719 -4.367188 6.488281 0.652344 13.304688 0.652344 Z M 13.304688 -4.980469 C 9.875 -4.980469 7.429688 -7.429688 7.429688 -11.019531 C 7.429688 -14.570312 9.875 -17.058594 13.304688 -17.058594 C 16.734375 -17.058594 19.183594 -14.570312 19.183594 -11.019531 C 19.183594 -7.429688 16.734375 -4.980469 13.304688 -4.980469 Z M 13.304688 -4.980469 "/></g></g></g><g fill="#3fa8d0" fill-opacity="1"><g transform="translate(203.529949, 243.414706)"><g><path d="M 14.855469 -22.652344 C 12.121094 -22.652344 9.671875 -21.671875 7.796875 -20 L 6.773438 -22.039062 L 2.855469 -22.039062 L 2.855469 7.957031 L 8.816406 7.957031 L 8.816406 -1.183594 C 10.488281 0 12.570312 0.695312 14.855469 0.695312 C 21.507812 0.695312 26.40625 -4.328125 26.40625 -11.019531 C 26.40625 -17.671875 21.507812 -22.652344 14.855469 -22.652344 Z M 14.367188 -4.980469 C 10.898438 -4.980469 8.367188 -7.550781 8.367188 -11.019531 C 8.367188 -14.449219 10.898438 -17.058594 14.367188 -17.058594 C 17.835938 -17.058594 20.367188 -14.449219 20.367188 -11.019531 C 20.367188 -7.550781 17.835938 -4.980469 14.367188 -4.980469 Z M 14.367188 -4.980469 "/></g></g></g><g fill="#3fa8d0" fill-opacity="1"><g transform="translate(229.316154, 243.414706)"><g><path d="M 2.855469 -24.976562 L 8.773438 -24.976562 L 8.773438 -30.488281 L 2.855469 -30.488281 Z M 2.855469 0 L 8.816406 0 L 8.816406 -22.039062 L 2.855469 -22.039062 Z M 2.855469 0 "/></g></g></g><g fill="#3fa8d0" fill-opacity="1"><g transform="translate(238.944649, 243.414706)"><g><path d="M 20.816406 -22.039062 L 20.203125 -19.957031 C 18.285156 -21.632812 15.792969 -22.652344 12.9375 -22.652344 C 6.324219 -22.652344 1.386719 -17.671875 1.386719 -11.019531 C 1.386719 -4.367188 6.324219 0.652344 12.9375 0.652344 C 15.753906 0.652344 18.203125 -0.328125 20.082031 -2 L 20.609375 0 L 25.265625 0 L 25.265625 -22.039062 Z M 13.425781 -4.980469 C 9.957031 -4.980469 7.429688 -7.589844 7.429688 -11.019531 C 7.429688 -14.488281 9.957031 -17.058594 13.425781 -17.058594 C 16.898438 -17.058594 19.425781 -14.488281 19.425781 -11.019531 C 19.425781 -7.550781 16.898438 -4.980469 13.425781 -4.980469 Z M 13.425781 -4.980469 "/></g></g></g></svg>