<svg width="22" height="14" viewBox="0 0 22 14" fill="none" xmlns="http://www.w3.org/2000/svg">
<path fill-rule="evenodd" clip-rule="evenodd" d="M1.97787 7C2.49222 7.58928 3.48845 8.65278 4.79041 9.67203C6.54198 11.0433 8.74011 12.25 11.0001 12.25C13.26 12.25 15.4581 11.0433 17.2097 9.67203C18.5117 8.65278 19.5079 7.58928 20.0222 7C19.5079 6.41072 18.5117 5.34722 17.2097 4.32797C15.4581 2.95674 13.26 1.75 11.0001 1.75C8.74011 1.75 6.54198 2.95674 4.7904 4.32797C3.48845 5.34722 2.49222 6.41072 1.97787 7ZM3.86576 3.14686C5.71012 1.70298 8.23822 0.25 11.0001 0.25C13.7619 0.25 16.29 1.70298 18.1343 3.14686C19.9956 4.60393 21.2692 6.13782 21.5372 6.47054C21.7871 6.78078 21.7871 7.2192 21.5372 7.52946C21.2692 7.86218 19.9956 9.39607 18.1343 10.8531C16.29 12.297 13.7619 13.75 11.0001 13.75C8.23823 13.75 5.71012 12.297 3.86576 10.8531C2.00453 9.39607 0.730867 7.86218 0.462911 7.52946C0.213052 7.21922 0.213042 6.7808 0.46291 6.47054C0.730866 6.13782 2.00453 4.60393 3.86576 3.14686Z" fill="#14142B"/>
<path fill-rule="evenodd" clip-rule="evenodd" d="M11 4.75C9.75736 4.75 8.75 5.75736 8.75 7C8.75 8.24264 9.75736 9.25 11 9.25C12.2426 9.25 13.25 8.24264 13.25 7C13.25 5.75736 12.2426 4.75 11 4.75ZM7.25 7C7.25 4.92893 8.92893 3.25 11 3.25C13.0711 3.25 14.75 4.92893 14.75 7C14.75 9.07107 13.0711 10.75 11 10.75C8.92893 10.75 7.25 9.07107 7.25 7Z" fill="#14142B"/>
</svg>
