<svg width="24" height="24" viewBox="0 0 24 24" fill="none" xmlns="http://www.w3.org/2000/svg">
<path fill-rule="evenodd" clip-rule="evenodd" d="M2.97775 12C3.4921 12.5893 4.48833 13.6528 5.79028 14.672C7.54186 16.0433 9.73999 17.25 11.9999 17.25C14.2599 17.25 16.458 16.0433 18.2096 14.672C19.5115 13.6528 20.5078 12.5893 21.0221 12C20.5078 11.4107 19.5115 10.3472 18.2096 9.32797C16.458 7.95674 14.2599 6.75 11.9999 6.75C9.73999 6.75 7.54185 7.95674 5.79028 9.32797C4.48833 10.3472 3.4921 11.4107 2.97775 12ZM4.86564 8.14686C6.71 6.70298 9.2381 5.25 11.9999 5.25C14.7618 5.25 17.2899 6.70298 19.1342 8.14686C20.9954 9.60393 22.2691 11.1378 22.5371 11.4705C22.7869 11.7808 22.7869 12.2192 22.5371 12.5295C22.2691 12.8622 20.9955 14.3961 19.1342 15.8531C17.2899 17.297 14.7618 18.75 11.9999 18.75C9.2381 18.75 6.71 17.297 4.86564 15.8531C3.00441 14.3961 1.73075 12.8622 1.46279 12.5295C1.21293 12.2192 1.21292 11.7808 1.46279 11.4705C1.73074 11.1378 3.00441 9.60393 4.86564 8.14686Z" fill="#9E9E9E"/>
<path fill-rule="evenodd" clip-rule="evenodd" d="M12 9.75C10.7574 9.75 9.75 10.7574 9.75 12C9.75 13.2426 10.7574 14.25 12 14.25C13.2426 14.25 14.25 13.2426 14.25 12C14.25 10.7574 13.2426 9.75 12 9.75ZM8.25 12C8.25 9.92893 9.92893 8.25 12 8.25C14.0711 8.25 15.75 9.92893 15.75 12C15.75 14.0711 14.0711 15.75 12 15.75C9.92893 15.75 8.25 14.0711 8.25 12Z" fill="#9E9E9E"/>
</svg>
