<svg width="29" height="28" viewBox="0 0 29 28" fill="none" xmlns="http://www.w3.org/2000/svg">
<path fill-rule="evenodd" clip-rule="evenodd" d="M12.3073 1.63296C13.4888 0.789041 15.0759 0.789012 16.2573 1.63288L25.1078 7.95438C26.6502 9.05608 27.5657 10.8349 27.5657 12.7304V22.3665C27.5657 24.9255 25.4912 27 22.9321 27H19.4013C17.5247 27 16.0034 25.4787 16.0034 23.6021V21.7486C16.0034 21.2368 15.5884 20.8219 15.0766 20.8219H13.488C12.9762 20.8219 12.5613 21.2368 12.5613 21.7486V23.6021C12.5613 25.4787 11.04 27 9.16335 27H5.63355C3.07451 27 1 24.9255 1 22.3665V12.7303C1 10.8348 1.91535 9.0561 3.45769 7.95439L12.3073 1.63296ZM15.1801 3.14109C14.6431 2.75751 13.9216 2.75753 13.3846 3.14113L4.53499 9.46256C3.47971 10.2164 2.85342 11.4334 2.85342 12.7303V22.3665C2.85342 23.9019 4.09812 25.1466 5.63355 25.1466H9.16335C10.0164 25.1466 10.7079 24.4551 10.7079 23.6021V21.7486C10.7079 20.2132 11.9526 18.9685 13.488 18.9685H15.0766C16.6121 18.9685 17.8568 20.2132 17.8568 21.7486V23.6021C17.8568 24.4551 18.5483 25.1466 19.4013 25.1466H22.9321C24.4675 25.1466 25.7123 23.9019 25.7123 22.3665V12.7304C25.7123 11.4335 25.0859 10.2164 24.0305 9.46259L15.1801 3.14109Z" fill="#9E9E9E"/>
</svg>
