<svg xmlns="http://www.w3.org/2000/svg" xmlns:xlink="http://www.w3.org/1999/xlink" width="500" zoomAndPan="magnify" viewBox="0 0 375 374.999991" height="500" preserveAspectRatio="xMidYMid meet" version="1.0"><defs><clipPath id="4a98a8b298"><path d="M 39.5625 37.5 L 335.8125 37.5 L 335.8125 337.5 L 39.5625 337.5 Z M 39.5625 37.5 " clip-rule="nonzero"/></clipPath></defs><g clip-path="url(#4a98a8b298)"><path fill="#3fa8d0" d="M 317.617188 145.078125 L 330.714844 37.5 L 237.566406 87.804688 L 137.390625 87.804688 L 44.242188 37.5 L 57.339844 145.078125 L 39.570312 231.449219 L 79.90625 306.859375 L 187.484375 337.492188 L 295.058594 306.859375 L 335.398438 231.449219 Z M 283.992188 293.136719 L 187.476562 320.621094 L 90.96875 293.136719 L 56.652344 228.972656 L 73.773438 145.75 L 64.148438 66.6875 L 133.292969 104.023438 L 241.664062 104.023438 L 310.8125 66.6875 L 301.1875 145.75 L 318.308594 228.972656 Z M 283.992188 293.136719 " fill-opacity="1" fill-rule="nonzero"/></g><path fill="#3fa8d0" d="M 130.574219 264.703125 L 244.382812 264.703125 L 187.476562 215.421875 Z M 130.574219 264.703125 " fill-opacity="1" fill-rule="nonzero"/></svg>