<svg width="428" height="1074" viewBox="0 0 428 1074" fill="none" xmlns="http://www.w3.org/2000/svg">
<g clip-path="url(#clip0_1281_1506)">
<rect width="428" height="1074" fill="#EBEBEB"/>
<rect x="280.442" y="95.7495" width="30.482" height="5.28" transform="rotate(-153 280.442 95.7495)" fill="#ECB43C"/>
<rect x="70.082" y="319.75" width="11.482" height="9.28" transform="rotate(30 70.082 319.75)" fill="#FDA5A5" fill-opacity="0.85"/>
<rect x="313.442" y="583.75" width="17.482" height="8.28" transform="rotate(-25 313.442 583.75)" fill="#56B8A5" fill-opacity="0.75"/>
<rect x="390.442" y="263.75" width="15.482" height="7.28" transform="rotate(-27 390.442 263.75)" fill="#56B8A5" fill-opacity="0.85"/>
<rect x="77.4419" y="624.75" width="14.482" height="8.28" transform="rotate(-51 77.4419 624.75)" fill="#3DBD96" fill-opacity="0.35"/>
<rect x="81.4419" y="385.75" width="8.482" height="4.28" transform="rotate(-168 81.4419 385.75)" fill="#ECB43C" fill-opacity="0.35"/>
<rect x="6.44189" y="394.75" width="16.482" height="4.28" transform="rotate(-176 6.44189 394.75)" fill="#56B8A5"/>
<rect x="141.723" y="289.446" width="14.482" height="8.28" transform="rotate(-148 141.723 289.446)" fill="#56B8A5" fill-opacity="0.35"/>
<rect x="261.442" y="25.7495" width="37.482" height="5.28" transform="rotate(6 261.442 25.7495)" fill="#56B8A5" fill-opacity="0.9"/>
<rect x="104.442" y="3.74951" width="9.482" height="7.28" transform="rotate(-131 104.442 3.74951)" fill="#3DBD96" fill-opacity="0.65"/>
<rect x="362.442" y="403.75" width="22.482" height="8.28" transform="rotate(-159 362.442 403.75)" fill="#3DBD96"/>
<rect x="125.442" y="89.7495" width="25.482" height="4.28" transform="rotate(-171 125.442 89.7495)" fill="#ECB43C"/>
<rect x="121.442" y="696.75" width="33.482" height="7.28" transform="rotate(-19 121.442 696.75)" fill="#56B8A5" fill-opacity="0.45"/>
<rect x="377.442" y="563.75" width="29.482" height="4.28" transform="rotate(-178 377.442 563.75)" fill="#FDA5A5" fill-opacity="0.65"/>
<rect x="349.919" y="131.596" width="32.482" height="4.28" transform="rotate(-179 349.919 131.596)" fill="#ECB43C" fill-opacity="0.85"/>
<rect x="98.8706" y="271.718" width="36.482" height="4.28" transform="rotate(158 98.8706 271.718)" fill="#3DBD96" fill-opacity="0.9"/>
<rect x="386.442" y="720.75" width="16.482" height="8.28" transform="rotate(-136 386.442 720.75)" fill="#FDA5A5" fill-opacity="0.85"/>
<rect x="21.4419" y="128.75" width="16.482" height="7.28" transform="rotate(90 21.4419 128.75)" fill="#3DBD96" fill-opacity="0.9"/>
<rect x="323.442" y="599.75" width="31.482" height="6.28" transform="rotate(-136 323.442 599.75)" fill="#56B8A5" fill-opacity="0.75"/>
<rect x="20.4419" y="831.75" width="21.482" height="6.28" transform="rotate(39 20.4419 831.75)" fill="#56B8A5" fill-opacity="0.6"/>
<rect x="356.442" y="778.75" width="15.482" height="6.28" transform="rotate(96 356.442 778.75)" fill="#3DBD96" fill-opacity="0.85"/>
<rect x="190.44" y="300.75" width="11.482" height="7.28" transform="rotate(74 190.44 300.75)" fill="#ECB43C" fill-opacity="0.75"/>
<rect x="83.4419" y="19.7495" width="29.482" height="6.28" transform="rotate(133 83.4419 19.7495)" fill="#ECB43C" fill-opacity="0.85"/>
<rect x="207.442" y="586.218" width="23.482" height="8.28" transform="rotate(-35 207.442 586.218)" fill="#FDA5A5" fill-opacity="0.85"/>
<rect x="366.442" y="264.75" width="36.482" height="4.28" transform="rotate(62 366.442 264.75)" fill="#56B8A5" fill-opacity="0.75"/>
<rect x="334.442" y="912.75" width="10.482" height="6.28" transform="rotate(-59 334.442 912.75)" fill="#FDA5A5" fill-opacity="0.35"/>
<rect x="115.442" y="890.75" width="8.482" height="9.28" transform="rotate(-4 115.442 890.75)" fill="#ECB43C" fill-opacity="0.6"/>
<rect x="352.442" y="558.75" width="17.482" height="7.28" transform="rotate(-91 352.442 558.75)" fill="#FDA5A5"/>
<rect x="394.442" y="278.75" width="27.482" height="8.28" transform="rotate(-68 394.442 278.75)" fill="#56B8A5" fill-opacity="0.35"/>
<rect x="17.4419" y="549.75" width="8.482" height="8.28" transform="rotate(-52 17.4419 549.75)" fill="#3DBD96" fill-opacity="0.6"/>
<rect x="433.442" y="404.75" width="28.482" height="6.28" transform="rotate(-133 433.442 404.75)" fill="#3DBD96" fill-opacity="0.6"/>
<rect x="390.442" y="331.75" width="29.482" height="6.28" transform="rotate(109 390.442 331.75)" fill="#ECB43C" fill-opacity="0.85"/>
<rect x="404.442" y="103.75" width="14.482" height="4.28" transform="rotate(99 404.442 103.75)" fill="#ECB43C" fill-opacity="0.45"/>
<rect x="317.713" y="277.208" width="36.482" height="4.28" transform="rotate(-149 317.713 277.208)" fill="#ECB43C" fill-opacity="0.85"/>
<rect x="396.442" y="579.75" width="33.482" height="4.28" transform="rotate(-115 396.442 579.75)" fill="#FDA5A5" fill-opacity="0.75"/>
<rect x="200.442" y="749.75" width="6.482" height="6.28" transform="rotate(113 200.442 749.75)" fill="#FDA5A5" fill-opacity="0.45"/>
<rect x="29.4419" y="708.75" width="35.482" height="7.28" transform="rotate(57 29.4419 708.75)" fill="#FDA5A5" fill-opacity="0.45"/>
<rect x="53.4419" y="146.75" width="36.482" height="8.28" transform="rotate(57 53.4419 146.75)" fill="#ECB43C" fill-opacity="0.85"/>
<rect x="120.164" y="220.379" width="7.482" height="8.28" transform="rotate(116 120.164 220.379)" fill="#3DBD96" fill-opacity="0.65"/>
<rect x="15.4419" y="254.75" width="20.482" height="4.28" transform="rotate(-19 15.4419 254.75)" fill="#56B8A5" fill-opacity="0.9"/>
<rect x="30.4419" y="377.75" width="25.482" height="7.28" transform="rotate(7 30.4419 377.75)" fill="#3DBD96" fill-opacity="0.6"/>
<rect x="304.442" y="13.7495" width="10.482" height="9.28" transform="rotate(170 304.442 13.7495)" fill="#ECB43C" fill-opacity="0.75"/>
<rect x="135.442" y="148.75" width="10.482" height="6.28" transform="rotate(-129 135.442 148.75)" fill="#56B8A5" fill-opacity="0.35"/>
<rect x="309.442" y="174.75" width="18.482" height="8.28" transform="rotate(92 309.442 174.75)" fill="#FDA5A5" fill-opacity="0.85"/>
<rect x="79.4419" y="782.75" width="31.482" height="8.28" transform="rotate(100 79.4419 782.75)" fill="#56B8A5" fill-opacity="0.65"/>
<rect x="229.442" y="626.75" width="15.482" height="8.28" transform="rotate(120 229.442 626.75)" fill="#3DBD96" fill-opacity="0.85"/>
<rect x="98.4419" y="917.75" width="24.482" height="8.28" transform="rotate(136 98.4419 917.75)" fill="#ECB43C" fill-opacity="0.75"/>
<rect x="32.4419" y="177.75" width="27.482" height="4.28" transform="rotate(-27 32.4419 177.75)" fill="#56B8A5"/>
<rect x="264.442" y="160.433" width="8.482" height="9.28" transform="rotate(-52 264.442 160.433)" fill="#3DBD96" fill-opacity="0.35"/>
<rect x="315.442" y="194.75" width="32.482" height="6.28" transform="rotate(71 315.442 194.75)" fill="#ECB43C"/>
<rect x="348.442" y="393.75" width="20.482" height="5.28" transform="rotate(66 348.442 393.75)" fill="#ECB43C" fill-opacity="0.6"/>
<rect x="93.4419" y="763.75" width="21.482" height="5.28" transform="rotate(-16 93.4419 763.75)" fill="#FDA5A5" fill-opacity="0.6"/>
<rect x="366.442" y="16.7495" width="35.482" height="7.28" transform="rotate(52 366.442 16.7495)" fill="#FDA5A5" fill-opacity="0.45"/>
<circle cx="65.2569" cy="666.565" r="2.815" fill="#FDA5A5"/>
<circle cx="200.257" cy="117.565" r="6.815" fill="#3DBD96" fill-opacity="0.65"/>
<circle cx="80.2569" cy="534.565" r="6.815" fill="#3DBD96" fill-opacity="0.35"/>
<circle cx="34.2569" cy="214.565" r="5.815" fill="#FDA5A5"/>
<circle cx="306.757" cy="189.065" r="6.315" fill="#FDA5A5" fill-opacity="0.75"/>
<circle cx="319.757" cy="591.065" r="2.315" fill="#ECB43C" fill-opacity="0.45"/>
<circle cx="409.757" cy="777.065" r="3.315" fill="#56B8A5" fill-opacity="0.6"/>
<circle cx="243.257" cy="322.565" r="2.815" fill="#56B8A5" fill-opacity="0.6"/>
<circle cx="225.257" cy="772.565" r="3.815" fill="#FDA5A5" fill-opacity="0.9"/>
<circle cx="103.257" cy="884.565" r="4.815" fill="#ECB43C" fill-opacity="0.9"/>
<circle cx="126.257" cy="731.565" r="4.815" fill="#ECB43C" fill-opacity="0.9"/>
<circle cx="53.2569" cy="360.565" r="4.815" fill="#56B8A5" fill-opacity="0.6"/>
<circle cx="325.757" cy="47.0645" r="5.315" fill="#ECB43C" fill-opacity="0.6"/>
<circle cx="126.257" cy="441.565" r="3.815" fill="#FDA5A5" fill-opacity="0.35"/>
<circle cx="359.757" cy="384.065" r="3.315" fill="#56B8A5" fill-opacity="0.85"/>
<circle cx="359.757" cy="166.065" r="3.315" fill="#3DBD96" fill-opacity="0.75"/>
<circle cx="38.2569" cy="278.565" r="5.815" fill="#56B8A5" fill-opacity="0.65"/>
<circle cx="80.2569" cy="792.565" r="5.815" fill="#FDA5A5" fill-opacity="0.6"/>
<circle cx="292.257" cy="735.565" r="6.815" fill="#3DBD96" fill-opacity="0.9"/>
<circle cx="112.257" cy="842.565" r="6.815" fill="#3DBD96" fill-opacity="0.6"/>
<circle cx="369.257" cy="522.565" r="2.815" fill="#56B8A5" fill-opacity="0.9"/>
<circle cx="154.757" cy="0.0643897" r="3.315" fill="#3DBD96" fill-opacity="0.9"/>
<circle cx="57.2569" cy="922.565" r="2.815" fill="#3DBD96" fill-opacity="0.75"/>
<circle cx="429.257" cy="493.565" r="3.815" fill="#ECB43C" fill-opacity="0.75"/>
<circle cx="334.757" cy="105.065" r="2.315" fill="#FDA5A5" fill-opacity="0.65"/>
<circle cx="58.2569" cy="71.5645" r="6.815" fill="#ECB43C" fill-opacity="0.85"/>
<circle cx="141.757" cy="151.065" r="3.315" fill="#ECB43C" fill-opacity="0.6"/>
<circle cx="256.757" cy="249.065" r="2.315" fill="#ECB43C" fill-opacity="0.45"/>
<circle cx="392.757" cy="517.065" r="3.315" fill="#3DBD96" fill-opacity="0.45"/>
<circle cx="283.257" cy="918.565" r="5.815" fill="#FDA5A5" fill-opacity="0.9"/>
<circle cx="168.757" cy="145.065" r="3.315" fill="#FDA5A5"/>
<circle cx="132.757" cy="475.065" r="6.315" fill="#ECB43C" fill-opacity="0.75"/>
<circle cx="255.257" cy="875.565" r="6.815" fill="#FDA5A5" fill-opacity="0.45"/>
<circle cx="269.757" cy="440.065" r="6.315" fill="#56B8A5" fill-opacity="0.65"/>
<circle cx="137.757" cy="633.065" r="6.315" fill="#56B8A5" fill-opacity="0.35"/>
<circle cx="91.2569" cy="724.565" r="4.815" fill="#FDA5A5" fill-opacity="0.65"/>
<circle cx="308.757" cy="911.065" r="3.315" fill="#ECB43C" fill-opacity="0.9"/>
<circle cx="179.757" cy="554.065" r="4.315" fill="#ECB43C" fill-opacity="0.35"/>
<circle cx="426.757" cy="186.065" r="4.315" fill="#3DBD96" fill-opacity="0.85"/>
<circle cx="176.257" cy="450.565" r="6.815" fill="#FDA5A5" fill-opacity="0.65"/>
<circle cx="417.257" cy="904.565" r="3.815" fill="#FDA5A5" fill-opacity="0.9"/>
<circle cx="251.757" cy="128.065" r="5.315" fill="#FDA5A5" fill-opacity="0.65"/>
<circle cx="377.257" cy="605.565" r="5.815" fill="#FDA5A5" fill-opacity="0.75"/>
<circle cx="412.257" cy="470.565" r="5.815" fill="#ECB43C" fill-opacity="0.9"/>
<circle cx="52.7569" cy="429.065" r="4.315" fill="#3DBD96" fill-opacity="0.45"/>
<circle cx="117.257" cy="669.565" r="2.815" fill="#3DBD96" fill-opacity="0.9"/>
<circle cx="174.257" cy="537.565" r="4.815" fill="#56B8A5" fill-opacity="0.65"/>
<circle cx="177.757" cy="39.0645" r="2.315" fill="#56B8A5" fill-opacity="0.85"/>
<circle cx="312.257" cy="11.5645" r="6.815" fill="#3DBD96" fill-opacity="0.35"/>
<circle cx="249.257" cy="884.565" r="5.815" fill="#3DBD96" fill-opacity="0.6"/>
<circle cx="117.257" cy="168.565" r="2.815" fill="#ECB43C" fill-opacity="0.45"/>
<circle cx="116.757" cy="5.06451" r="4.315" fill="#FDA5A5" fill-opacity="0.35"/>
<circle cx="28.2569" cy="420.565" r="5.815" fill="#FDA5A5" fill-opacity="0.75"/>
<circle cx="289.757" cy="803.065" r="6.315" fill="#3DBD96" fill-opacity="0.75"/>
</g>
<defs>
<clipPath id="clip0_1281_1506">
<rect width="428" height="1074" fill="white"/>
</clipPath>
</defs>
</svg>
