<svg width="29" height="28" viewBox="0 0 29 28" fill="none" xmlns="http://www.w3.org/2000/svg">
<path fill-rule="evenodd" clip-rule="evenodd" d="M14.0077 2.92435C11.5025 2.92435 9.47171 4.95517 9.47171 7.46032C9.47171 9.96546 11.5025 11.9963 14.0077 11.9963C16.5128 11.9963 18.5436 9.96546 18.5436 7.46032C18.5436 4.95517 16.5128 2.92435 14.0077 2.92435ZM7.54736 7.46032C7.54736 3.89238 10.4397 1 14.0077 1C17.5756 1 20.468 3.89238 20.468 7.46032C20.468 11.0283 17.5756 13.9206 14.0077 13.9206C10.4397 13.9206 7.54736 11.0283 7.54736 7.46032Z" fill="#9E9E9E"/>
<path fill-rule="evenodd" clip-rule="evenodd" d="M4.14224 20.1358C6.14002 18.0014 9.38911 16.3948 14.3748 16.3948C19.3605 16.3948 22.6096 18.0014 24.6074 20.1358C26.58 22.2433 27.2496 24.7781 27.2496 26.5205C27.2496 27.0519 26.8189 27.4827 26.2875 27.4827H2.46218C1.93078 27.4827 1.5 27.0519 1.5 26.5205C1.5 24.7781 2.16962 22.2433 4.14224 20.1358ZM3.50618 25.5583H25.2435C25.0432 24.3233 24.4511 22.7848 23.2025 21.4508C21.6265 19.767 18.9192 18.3191 14.3748 18.3191C9.83041 18.3191 7.12318 19.767 5.54717 21.4508C4.29855 22.7848 3.7064 24.3233 3.50618 25.5583Z" fill="#9E9E9E"/>
</svg>
