<svg width="124" height="123" viewBox="0 0 124 123" fill="none" xmlns="http://www.w3.org/2000/svg">
<path d="M123.5 61.5C123.5 95.4655 95.9655 123 62 123C28.0345 123 0.5 95.4655 0.5 61.5C0.5 27.5345 28.0345 0 62 0C95.9655 0 123.5 27.5345 123.5 61.5ZM6.25046 61.5C6.25046 92.2896 31.2104 117.25 62 117.25C92.7896 117.25 117.75 92.2896 117.75 61.5C117.75 30.7104 92.7896 5.75046 62 5.75046C31.2104 5.75046 6.25046 30.7104 6.25046 61.5Z" fill="#3FA8D0"/>
<path d="M91.5057 41.1926L53.3793 79.319L36.0491 61.9888" stroke="#3FA8D0" stroke-width="7.10983" stroke-linecap="round" stroke-linejoin="round"/>
</svg>
