<svg width="29" height="28" viewBox="0 0 29 28" fill="none" xmlns="http://www.w3.org/2000/svg">
<path fill-rule="evenodd" clip-rule="evenodd" d="M14.5 2.81395C8.32212 2.81395 3.31395 7.82212 3.31395 14C3.31395 20.1779 8.32212 25.186 14.5 25.186C20.6779 25.186 25.686 20.1779 25.686 14C25.686 7.82212 20.6779 2.81395 14.5 2.81395ZM1.5 14C1.5 6.8203 7.3203 1 14.5 1C21.6797 1 27.5 6.8203 27.5 14C27.5 21.1797 21.6797 27 14.5 27C7.3203 27 1.5 21.1797 1.5 14Z" fill="#9E9E9E"/>
<path fill-rule="evenodd" clip-rule="evenodd" d="M17.9031 10.5969L12.7983 12.2985L11.0968 17.4032L16.2015 15.7016L17.9031 10.5969ZM18.8209 8.37887C19.6244 8.11101 20.3889 8.8755 20.1211 9.67908L17.7981 16.6481C17.6958 16.955 17.4549 17.1959 17.148 17.2982L10.179 19.6212C9.37538 19.889 8.61089 19.1245 8.87874 18.321L11.2017 11.352C11.3041 11.045 11.5449 10.8042 11.8519 10.7019L18.8209 8.37887Z" fill="#9E9E9E"/>
</svg>
