<svg width="29" height="28" viewBox="0 0 29 28" fill="none" xmlns="http://www.w3.org/2000/svg">
<path d="M26.5928 13.9998C26.5928 20.6786 21.1786 26.0928 14.4998 26.0928C7.82097 26.0928 2.40674 20.6786 2.40674 13.9998C2.40674 7.32097 7.82097 1.90674 14.4998 1.90674C21.1786 1.90674 26.5928 7.32097 26.5928 13.9998Z" fill="#3FA8D0"/>
<path fill-rule="evenodd" clip-rule="evenodd" d="M14.5 2.81395C8.32212 2.81395 3.31395 7.82212 3.31395 14C3.31395 20.1779 8.32212 25.186 14.5 25.186C20.6779 25.186 25.686 20.1779 25.686 14C25.686 7.82212 20.6779 2.81395 14.5 2.81395ZM1.5 14C1.5 6.8203 7.3203 1 14.5 1C21.6797 1 27.5 6.8203 27.5 14C27.5 21.1797 21.6797 27 14.5 27C7.3203 27 1.5 21.1797 1.5 14Z" fill="#3FA8D0"/>
<path d="M19.1078 9.23932L12.1388 11.5623C12.1027 11.5744 12.0744 11.6027 12.0623 11.6388L9.73932 18.6078C9.70781 18.7023 9.79775 18.7923 9.89229 18.7608L16.8613 16.4378C16.8974 16.4257 16.9257 16.3974 16.9378 16.3613L19.2608 9.39229C19.2923 9.29775 19.2024 9.20781 19.1078 9.23932Z" fill="#3FA8D0"/>
<path fill-rule="evenodd" clip-rule="evenodd" d="M17.9031 10.5968L12.7983 12.2983L11.0968 17.4031L16.2015 15.7015L17.9031 10.5968ZM18.8209 8.37874C19.6244 8.11089 20.3889 8.87538 20.1211 9.67896L17.7981 16.648C17.6958 16.9549 17.4549 17.1957 17.148 17.2981L10.179 19.6211C9.37538 19.8889 8.61089 19.1244 8.87874 18.3209L11.2017 11.3519C11.3041 11.0449 11.5449 10.8041 11.8519 10.7017L18.8209 8.37874Z" fill="white"/>
</svg>
